<svg id="Layer_1" data-name="Layer 1" xmlns="http://www.w3.org/2000/svg" viewBox="0 0 1080 292"><defs><style>.cls-1{isolation:isolate;}.cls-2{fill:#f5831f;}.cls-3{fill:#fff;}</style></defs><g class="cls-1"><path class="cls-2" d="M822,223.26h7.66l7.52,20h.09l7.65-20h7.18L839.5,253.7h-5.38Z"/><path class="cls-2" d="M854.25,246.86l11.82-10.62c1.2-1.12,2.71-2.41,2.71-4.25a3.45,3.45,0,0,0-3.74-3.32,3.87,3.87,0,0,0-4,3.87l-6.45-.47c.39-6.28,4.78-9.33,10.75-9.33,5.55,0,9.85,3,9.85,9.16,0,3.91-1.68,6.15-4,8.17L862,248h13.51v5.68H854.25Z"/><path class="cls-2" d="M884,246.05a4,4,0,1,1-4,3.95A3.94,3.94,0,0,1,884,246.05Z"/><path class="cls-2" d="M903.05,222.74c9,0,11.31,8.51,11.31,15.74s-2.28,15.74-11.31,15.74-11.31-8.52-11.31-15.74S894,222.74,903.05,222.74Zm0,25.54c4.64,0,4.86-6.62,4.86-9.8s-.22-9.81-4.86-9.81-4.86,6.63-4.86,9.81S898.41,248.28,903.05,248.28Z"/></g><g class="cls-1"><path class="cls-3" d="M167.63,52.56h43.46l61.7,100.86h.41V52.56h32V197.7H263.36L200,94.38h-.41V197.7h-32Z"/></g><g class="cls-1"><path class="cls-3" d="M544.82,80.85H503.41V52.56h114.8V80.85H576.8V197.7h-32Z"/><path class="cls-3" d="M635.63,52.56h98.61V82.08H667.61v27.06h62.94v29.52H667.61v29.52h70.32V197.7H635.63Z"/><path class="cls-3" d="M835.3,88c-5.13-6.56-15.38-9.63-23.17-9.63-9,0-21.52,4.1-21.52,15,0,26.45,66.83,9.43,66.83,60.27,0,32.39-26,47.77-56,47.77-18.65,0-35.05-5.53-48.79-18.24l22.76-25a35.53,35.53,0,0,0,27.88,13.74c10.45,0,22.14-4.92,22.14-15.17,0-26.65-68.06-12.3-68.06-60.68,0-31,26.85-47.15,55.35-47.15,16.4,0,32.18,4.3,44.48,15.17Z"/><path class="cls-3" d="M880.81,52.56h32V197.7h-32Z"/></g><path class="cls-2" d="M411.87,51.7c-97.26,1.65-97.28,146.34,0,148C509.12,198.05,509.14,53.36,411.87,51.7Z"/></svg>